<?xml version="1.0" encoding="utf-8"?>
<!-- Generator: Adobe Illustrator 24.1.2, SVG Export Plug-In . SVG Version: 6.00 Build 0)  -->
<svg version="1.1" id="Layer_1" xmlns="http://www.w3.org/2000/svg" xmlns:xlink="http://www.w3.org/1999/xlink" x="0px" y="0px"
	 viewBox="0 0 226.8 48.2" style="enable-background:new 0 0 226.8 48.2;" xml:space="preserve">
<style type="text/css">
	.Drop_x0020_Shadow{fill:none;}
	.Round_x0020_Corners_x0020_2_x0020_pt{fill:#FFFFFF;stroke:#000000;stroke-miterlimit:10;}
	.Live_x0020_Reflect_x0020_X{fill:none;}
	.Bevel_x0020_Soft{fill:url(#SVGID_1_);}
	.Dusk{fill:#FFFFFF;}
	.Foliage_GS{fill:#FFDD00;}
	.Pompadour_GS{fill-rule:evenodd;clip-rule:evenodd;fill:#51AEE2;}
	.st0{fill-rule:evenodd;clip-rule:evenodd;fill:#E52628;}
	.st1{fill:#FFFFFF;}
</style>
<linearGradient id="SVGID_1_" gradientUnits="userSpaceOnUse" x1="0" y1="0" x2="0.7071" y2="0.7071">
	<stop  offset="0" style="stop-color:#E6E6EB"/>
	<stop  offset="0.1738" style="stop-color:#E2E2E6"/>
	<stop  offset="0.352" style="stop-color:#D5D4D8"/>
	<stop  offset="0.5323" style="stop-color:#C0BFC2"/>
	<stop  offset="0.7139" style="stop-color:#A4A2A4"/>
	<stop  offset="0.8949" style="stop-color:#828282"/>
	<stop  offset="1" style="stop-color:#6B6E6E"/>
</linearGradient>
<g>
	<path class="st0" d="M29.4,15.9v-0.1c1.3-0.1,2.4-0.6,3.5-1.7c1.8-1.5,2.4-3.2,2.8-4.9c0.4-2.1,0.8-5-0.4-6.8
		c-1.4-1.8-4.2-2.1-6.4-2.1h-9h-8.2c-1.4,0-2.9,0.7-3.9,1.7c-0.8,0.7-1.5,2-1.9,3.5L0.8,27c-0.3,1.3-0.3,2.6,0.3,3.5
		C2.2,32.2,4,32,5.6,32h14.2h2.4c2.6,0,5,0,7.5-2.2c2.5-2.1,3.1-4.6,3.5-6.7c0.4-1.9,0.8-3.9-0.4-5.6C32,16.7,30.9,16,29.4,15.9z
		 M23.2,21.6c-0.1,0.7-0.7,1.5-1,1.9c-0.3,0.1-1,0.6-2.9,0.6h-5.4c-0.6,0-1.5,0-1.8-0.4c-0.1-0.3-0.1-0.8,0.1-2l0.6-2.4h7h1
		c0.8,0,1.9,0,2.4,1C23.4,20.6,23.4,21.2,23.2,21.6z M25.2,10.2c0,0.4-0.3,1.1-0.6,1.5c-0.8,0.8-1.8,0.8-2.6,0.8h-2.2h-5.4l0.6-2.6
		c0.1-0.4,0.1-1,0.7-1.4c0.6-0.3,1-0.3,1.4-0.3h2.8h3.1c0.7,0,1.7,0,2.2,0.6C25.2,9.2,25.3,9.6,25.2,10.2z"/>
	<path class="st0" d="M61.7,9.3c-1.5-1.5-4.7-1.5-9.6-1.5c-0.7,0-1.5,0-2.2,0c-3.2,0-6.2,0.3-8.5,1.6c0,0,0,0,0,0
		c-0.4,0.2-0.8,0.5-1.1,0.8c-2.6,2.1-3.3,5.7-4.3,10.2c-1,4.3-1.4,6.8-0.7,8.5C36.3,32,39.4,32,43,32h6.8h8.4l1.4-6.4h-9.7H48
		c-1.7,0-3.2,0-3.8-1.1c-0.1-0.6-0.1-1.4,0-1.9h5.6h7.5c0.8,0,1.7-0.1,2.5-0.7c1.7-1.1,2.1-2.9,2.5-4.5
		C62.9,14.8,63.5,11.3,61.7,9.3z M53.9,15.6c-0.1,0.4-0.4,1.3-1.7,1.3h-2.4h-4.2c0.1-1.1,0.4-2.1,1.5-2.6c0.7-0.3,2.1-0.4,3.2-0.4
		c0.4,0,1.5,0.1,2.2,0.3C53.9,14.2,54,15,53.9,15.6z"/>
	<path class="st0" d="M73.4,14.2c0.4-0.1,0.7,0,1.1,0h12.9l1.4-6.1h-16c-2.5,0-4.3,0.3-6,2.2c-1.3,1.3-1.8,2.8-2.2,4.3
		c-0.3,1.1-0.4,2.9,0,4c0.6,1.4,2.2,2.4,4.2,3.1l4.9,1.7c1.7,0.7,2.2,0.8,2.5,1c0.1,0.1,0.3,0.3,0.3,0.6c-0.1,0.3-0.3,0.4-0.4,0.4
		c-0.1,0.1-0.4,0.3-0.6,0.3H62.4L61,32h17.1c1.3,0,2.6-0.1,4.2-1.1c1.9-1.4,2.8-3.3,3.2-5.2c0.1-1,0.6-2.9-0.1-4.6
		c-0.8-1.7-2.5-2.4-4.9-3.3l-5.6-1.9c-1-0.4-0.7-0.3-1.7-0.7c-0.3-0.1-0.4-0.1-0.4-0.6C72.9,14.3,73.1,14.2,73.4,14.2z"/>
	<path class="st0" d="M104.3,0.3h-8.9l-1.7,7.8h-3.5l-1.4,6.1h3.3l-2.4,10.3c-0.4,2.2,0,4.5,1.7,5.8c2.1,1.7,5.3,1.7,7.1,1.7h5.2
		l1.5-6.4h-1.4c-1.1,0-2.6-0.1-3.6-1.1c-1-1.3-0.8-3.1-0.4-4.9l1.3-5.4h6.8l1.4-6.1h-6.8L104.3,0.3z"/>
	<path class="st0" d="M164.4,0.3l-9.6,19.2c-0.4,0.7-0.7,0.8-0.8,0.8c-0.1,0-0.3-0.6-0.3-0.7l-1-16.3c-0.3-3.2-3.3-3.3-5.2-3.3
		c-1.7,0-4.9,0.1-6.5,3.3l-8.5,16.3c-0.1,0.1-0.6,0.7-0.7,0.7c-0.1,0-0.3-0.1-0.4-0.8l-0.8-19.2h-10.4l1.9,25.5
		c0.4,5.4,2.2,6.7,6.3,6.7c4.9,0,6.8-2.1,8.6-5.6l7.1-13.8c0.3-0.1,0.4-0.8,0.7-0.8c0.3,0,0.3,0.7,0.3,0.8l0.8,13.8
		c0.3,3.5,1.3,5.6,6.1,5.6c4,0,6.4-1.3,9.3-6.7l13.5-25.5H164.4z"/>
	<path class="st0" d="M188.3,8.1h-8.2h-7.8l-1.3,6h9h2.9c1,0,2.1,0,2.5,0.8c0.3,0.6,0.1,1.3,0.1,1.7l-0.1,0.3h-5.4h-5
		c-1.4,0-3.1,0.1-4.6,1.1c-2.2,1.4-2.9,3.9-3.5,6c-0.4,1.9-1,5.2,0.4,6.8c1,1.1,2.6,1.3,4.2,1.3h8.5h5.6c1.4,0,2.9-0.1,4.3-1.3
		c1.4-1.1,1.8-2.6,2.1-3.9l2.4-10c0.4-1.9,0.8-4.7-0.7-6.7C192.9,9,191.3,8.1,188.3,8.1z M183.9,24.1c-0.1,0.4-0.3,0.8-0.7,1.1
		c-0.3,0.3-1,0.4-1.4,0.4h-1.7h-2.9c-0.4,0-0.8-0.1-1.1-0.4c-0.3-0.3-0.3-0.7-0.1-1.1c0.1-0.4,0.3-0.7,0.6-1.1
		c0.6-0.3,1.1-0.4,1.4-0.4h2.2h4.2L183.9,24.1z"/>
	<polygon class="st0" points="217.9,8.1 207.7,23.2 204.9,8.1 195.9,8.1 201.7,32 190.4,47.8 199.3,47.8 226.8,8.1 	"/>
</g>
<g>
	<path class="st1" d="M6.6,43.3h5.1v0.1c0,0.7,0,1.3-0.1,1.7c-0.1,0.4-0.2,0.6-0.4,0.8c-0.2,0.2-0.5,0.3-0.9,0.3
		c-0.4,0.1-1.1,0.1-1.8,0.1H5.4c-0.7,0-1.2,0-1.6-0.1c-0.4,0-0.7-0.1-1-0.3c-0.2-0.1-0.4-0.3-0.5-0.6c-0.1-0.3-0.2-0.7-0.3-1.1
		c-0.1-0.5-0.1-1.2-0.1-1.9v-0.3c0-0.8,0-1.5,0.1-2c0.1-0.5,0.1-0.9,0.3-1.1c0.1-0.2,0.3-0.4,0.5-0.5c0.2-0.1,0.6-0.2,1-0.2
		c0.4,0,1-0.1,1.6-0.1H8c0.8,0,1.5,0,2,0c0.5,0,0.8,0.1,1.1,0.2c0.2,0.1,0.3,0.3,0.4,0.5c0.1,0.3,0.1,0.7,0.1,1.2v0.3h1.9v-0.3
		c0-0.8-0.1-1.4-0.2-1.9c-0.2-0.5-0.5-0.9-0.9-1.2c-0.4-0.3-1-0.4-1.7-0.5C10,36.4,9.1,36.4,8,36.4H5.4c-0.8,0-1.6,0-2.2,0.1
		c-0.6,0.1-1.2,0.2-1.6,0.5c-0.4,0.2-0.8,0.6-1,1c-0.2,0.4-0.4,1-0.5,1.7C0,40.3,0,41.1,0,42.1v0.3c0,1.2,0.1,2.1,0.2,2.8
		c0.2,0.8,0.5,1.4,0.9,1.8c0.4,0.4,1,0.7,1.7,0.9C3.5,48,4.4,48,5.4,48h3.1c1,0,1.8-0.1,2.4-0.2c0.7-0.1,1.2-0.4,1.6-0.7
		c0.4-0.3,0.7-0.8,0.9-1.5c0.2-0.6,0.2-1.3,0.2-2.3v-1.8h-7V43.3z"/>
	<path class="st1" d="M45.1,36.6l-6.5,11.2h2.2l1.3-2.4h8.1l1.3,2.4h2.2l-6.5-11.2H45.1z M43.1,43.7l3-5.3l3,5.3H43.1z"/>
	<polygon class="st1" points="87.5,45.1 81.3,36.6 78.8,36.6 78.8,47.8 80.8,47.8 80.8,39 86.8,47.1 88.3,47.1 94.2,39 94.2,47.8 
		96.2,47.8 96.2,36.6 93.7,36.6 	"/>
	<polygon class="st1" points="124.3,42.9 133,42.9 133,41.2 124.3,41.2 124.3,38.3 133.4,38.3 133.4,36.6 122.4,36.6 122.4,47.8 
		133.6,47.8 133.6,46.1 124.3,46.1 	"/>
	<path class="st1" d="M172,42.9c-0.1-0.4-0.3-0.8-0.7-1.1c-0.3-0.3-0.8-0.4-1.4-0.5c-0.6-0.1-1.4-0.2-2.4-0.2l-4.1-0.1
		c-0.8,0-1.3,0-1.8-0.1c-0.5,0-0.7-0.1-0.9-0.2c-0.1-0.1-0.2-0.2-0.3-0.3c-0.1-0.2-0.1-0.5-0.1-0.8c0-0.4,0-0.7,0.1-1
		c0.1-0.2,0.2-0.3,0.4-0.4c0.2-0.1,0.6-0.2,1-0.2c0.5,0,1.2,0,2,0h2.9c0.7,0,1.2,0,1.7,0c0.4,0,0.7,0.1,1,0.2
		c0.2,0.1,0.3,0.2,0.4,0.5c0.1,0.3,0.2,0.7,0.2,1.3v0.3h1.9v-0.3c0-0.8-0.1-1.5-0.3-2c-0.2-0.5-0.5-0.9-0.9-1.2
		c-0.4-0.2-1-0.4-1.6-0.5c-0.6-0.1-1.4-0.1-2.4-0.1h-3c-1,0-1.9,0-2.6,0.1c-0.7,0.1-1.2,0.3-1.6,0.5c-0.4,0.3-0.7,0.6-0.9,1.1
		c-0.1,0.4-0.2,1-0.2,1.6c0,0.6,0.1,1.1,0.2,1.5c0.1,0.4,0.4,0.8,0.7,1c0.3,0.2,0.8,0.4,1.4,0.5c0.6,0.1,1.4,0.2,2.3,0.2l3.8,0.1
		c0.8,0,1.5,0,1.9,0.1c0.5,0,0.8,0.1,0.9,0.2c0.2,0.1,0.2,0.2,0.3,0.3c0.1,0.2,0.1,0.5,0.1,0.9c0,0.4,0,0.8-0.1,1
		c0,0.2-0.2,0.4-0.3,0.5c-0.1,0.1-0.4,0.2-0.9,0.3c-0.5,0.1-1.1,0.1-1.9,0.1h-3.2c-0.7,0-1.3,0-1.8,0c-0.4,0-0.8-0.1-1-0.2
		c-0.2-0.1-0.3-0.3-0.4-0.6c-0.1-0.3-0.1-0.8-0.1-1.4v-0.3h-1.9V44c0,0.9,0.1,1.6,0.3,2.1c0.2,0.6,0.5,1,0.9,1.3
		c0.4,0.3,1,0.5,1.7,0.5c0.7,0.1,1.5,0.1,2.4,0.1h3.2c1,0,1.9-0.1,2.6-0.2c0.7-0.1,1.2-0.3,1.6-0.6c0.4-0.3,0.7-0.7,0.8-1.2
		c0.1-0.4,0.2-1,0.2-1.6C172.1,43.8,172.1,43.3,172,42.9z"/>
</g>
</svg>
