<svg width="60" height="60" viewBox="0 0 60 60" fill="none" xmlns="http://www.w3.org/2000/svg">
<g clip-path="url(#clip0_2_7108)">
<path d="M49.48 21.2108V49.7553C49.482 50.0438 49.4272 50.3298 49.3186 50.5972C49.2101 50.8645 49.05 51.1078 48.8474 51.3132C48.6448 51.5187 48.4038 51.6822 48.138 51.7944C47.8722 51.9067 47.5869 51.9655 47.2984 51.9675H12.1171C11.5389 51.9675 10.9843 51.738 10.5753 51.3294C10.1662 50.9207 9.93613 50.3664 9.93555 49.7882V10.2086C9.93555 9.02889 10.922 8.0293 12.1369 8.0293H36.2919L49.48 21.2108ZM45.0861 23.4077H34.1016V12.4231H14.3294V47.5737H45.0861V23.4077ZM20.9201 19.0139H27.5108V23.4077H20.9201V19.0139ZM20.9201 27.8015H38.4954V32.1953H20.9201V27.8015ZM20.9201 36.5892H38.4954V40.983H20.9201V36.5892Z" fill="#969696"/>
</g>
<defs>
<clipPath id="clip0_2_7108">
<rect width="58.5843" height="58.5843" fill="white" transform="translate(0.707031 0.707031)"/>
</clipPath>
</defs>
</svg>
