<svg width="642" height="282" viewBox="0 0 642 282" fill="none" xmlns="http://www.w3.org/2000/svg">
<path d="M268.897 74.3133L257.037 68.875L257.934 55.9335V54.5566L256.761 54.0058L231.388 42.7163L230.491 42.3033L229.664 42.7852L215.942 50.2886L161.609 25.4377V12.9779V11.6699L160.437 11.1193L138.511 1.34411L137.683 1L136.856 1.41302L20.0534 56.0711L18.8121 56.6217L18.9501 57.9985L22.7424 98.8888L12.0551 104.396L10.8828 105.015L11.0206 106.323L18.8811 183.423V184.318L19.7775 184.8L31.499 192.51L32.2576 200.633V201.596L33.154 202.147L39.9801 206.69L41.2211 220.527V221.422L42.0485 221.973L105.828 265.341L106.931 266.098L108.034 265.341L118.032 258.526L151.818 280.967L152.922 281.725L154.025 280.899L176.365 264.79L177.123 264.24V263.276L177.468 247.994L225.734 213.987L236.421 220.114L237.524 220.733L238.558 219.976L257.727 206.209L258.485 205.658V204.763L270 76.1032L270.138 74.7263L268.897 74.1757V74.3133Z" fill="white"/>
<path d="M139.95 122.572L21.0098 57.8631L137.812 3.20508L159.67 12.9801L68.1721 57.4499L90.9948 69.428L138.571 45.2655L162.29 56.6239L114.783 81.6813L139.467 94.623L230.62 44.5084L255.994 55.7978L139.95 122.572Z" fill="black"/>
<path d="M177.604 159.057L178.293 130.214L153.402 145.221L152.851 279.388L175.26 263.279L176.983 186.937L199.875 172.068L200.909 144.464L177.604 159.057Z" fill="black"/>
<path d="M246.953 88.8397L244.885 116.995L223.441 130.418L221.855 157.816V157.747L242.954 143.842L237.438 218.532L256.607 204.764L268.053 76.1045L246.953 88.8397Z" fill="black"/>
<path d="M198.908 198.294L220.352 183.769L221.869 157.816L199.874 172.066L198.908 198.294Z" fill="black"/>
<path d="M102.032 130.56L31.7021 90.5645L34.1845 118.72L103.066 159.541L102.032 130.56Z" fill="black"/>
<path d="M40.9941 196.505L43.0628 220.392L106.842 263.76L105.946 239.254L40.9941 196.505Z" fill="black"/>
<path d="M13.0098 106.188L20.8703 183.287L41.0038 196.504L34.1777 118.716L13.0098 106.188Z" fill="black"/>
<path d="M129.523 254.743L128.42 202.357L80.7754 172.963L82.0855 199.328L105.046 213.853L105.942 239.255L129.523 254.743Z" fill="black"/>
<path d="M82.7884 65.0905L68.1709 57.4493L159.669 12.9795L159.6 26.6786L82.7884 65.0905Z" fill="#808080"/>
<path d="M162.231 70.8718L162.3 56.6221L114.793 81.6795L128.79 88.9764L162.231 70.8718Z" fill="#808080"/>
<path d="M200.91 144.466L188.016 137.582L177.949 143.777L177.604 159.06L200.91 144.466Z" fill="#808080"/>
<path d="M244.897 116.996L232.003 110.456L210.49 123.742L223.453 130.419L244.897 116.996Z" fill="#808080"/>
<path d="M164.908 123.055L139.948 137.717L153.394 145.221L178.285 130.214L164.908 123.055Z" fill="#808080"/>
<path d="M246.971 88.8384L268.07 76.1032L254.969 70.1143L233.732 82.5741L246.971 88.8384Z" fill="#808080"/>
<path d="M209.185 150.865L221.872 157.818L199.877 172.068L200.428 156.441L209.185 150.865Z" fill="#808080"/>
<path d="M43.9066 84.2988L114.512 123.537L115.133 152.38L103.066 159.54L102.032 130.559L31.7021 90.5632L43.9066 84.2988Z" fill="#808080"/>
<path d="M92.3591 165.938L140.349 194.781L140.831 247.03L129.523 254.74L128.42 202.353L80.7754 172.959L92.3591 165.938Z" fill="#808080"/>
<path d="M117.819 247.033L105.959 239.254L106.855 263.76L118.025 256.188L117.819 247.033Z" fill="#808080"/>
<path d="M34.1797 118.719L47.4183 126.566L52.3138 189.898L105.406 224.249L105.958 239.255L41.0058 196.507L34.1797 118.719Z" fill="#808080"/>
<path d="M32.9367 104.538L34.1777 118.719L13.0098 106.19L24.8693 100.063L32.9367 104.538Z" fill="#808080"/>
<path d="M379.022 165.592C363.646 165.592 350.545 160.36 339.72 149.966C328.894 139.502 323.447 126.905 323.447 112.036C323.447 97.1665 328.756 84.5 339.444 74.0365C350.131 63.573 363.025 58.4102 378.194 58.4102C389.502 58.4102 399.707 61.3702 408.877 67.2215C418.048 73.0728 424.667 80.9205 428.804 90.7645H405.774C402.947 86.29 399.086 82.7791 394.122 80.1632C389.157 77.5474 383.917 76.2394 378.401 76.2394C368.472 76.2394 359.991 79.6814 353.096 86.6341C346.132 93.5868 342.684 102.054 342.684 112.104C342.684 122.155 346.201 130.553 353.165 137.506C360.129 144.459 368.61 147.901 378.608 147.901C388.606 147.901 396.742 144.459 403.361 137.644C405.981 134.89 408.05 131.93 409.705 128.763H366.61V111.003H433.837V112.104C433.837 126.974 428.528 139.571 417.91 150.035C407.291 160.498 394.329 165.661 379.159 165.661H379.09L379.022 165.592Z" fill="white"/>
<path d="M452.461 163.528V60.4072H508.035V78.1676H471.56V103.569H506.312V121.33H471.56V145.767H508.035V163.528H452.461Z" fill="white"/>
<path d="M551.392 163.528H532.293V60.4072H558.977L586.488 138.746L613.793 60.4072H640.477V163.528H621.378V85.2579L594.073 163.528H578.835L551.461 85.4644V163.528H551.392Z" fill="white"/>
<path d="M327.869 223.758V189.614H346.279V195.535H334.213V203.933H345.727V209.853H334.213V217.976H346.279V223.896H327.869V223.758Z" fill="white"/>
<path d="M388.754 223.758H382.41V189.614H389.719L403.923 214.603V189.614H410.266V223.758H403.302L388.754 198.563V223.758Z" fill="white"/>
<path d="M463.144 224.448C458.042 224.448 453.698 222.727 450.113 219.285C446.527 215.843 444.734 211.644 444.734 206.756C444.734 201.869 446.527 197.601 450.044 194.159C453.56 190.717 457.835 188.996 462.868 188.996C466.592 188.996 469.97 189.96 473.004 191.887C476.038 193.815 478.244 196.431 479.623 199.666H471.97C471.005 198.22 469.763 197.05 468.109 196.155C466.454 195.26 464.73 194.847 462.868 194.847C459.559 194.847 456.801 196.018 454.456 198.289C452.181 200.561 451.009 203.383 451.009 206.756C451.009 210.13 452.181 212.883 454.456 215.155C456.801 217.426 459.559 218.597 462.868 218.597C466.178 218.597 468.867 217.426 471.073 215.155C471.901 214.26 472.659 213.227 473.142 212.195H458.869V206.275H481.14V206.619C481.14 211.506 479.348 215.706 475.831 219.148C472.315 222.589 468.04 224.31 463.006 224.31L463.144 224.448Z" fill="white"/>
<path d="M515.76 189.547H522.103V223.691H515.76V189.547Z" fill="white"/>
<path d="M565.062 223.758H558.719V189.614H566.028L580.231 214.603V189.614H586.575V223.758H579.611L565.062 198.563V223.758Z" fill="white"/>
<path d="M622.635 223.758V189.614H641.045V195.535H628.978V203.933H640.493V209.853H628.978V217.976H641.045V223.896H622.635V223.758Z" fill="white"/>
</svg>
