<svg width="642" height="282" viewBox="0 0 642 282" fill="none" xmlns="http://www.w3.org/2000/svg">
<path d="M243.448 80.3751L232.71 75.4514L233.522 63.7347V62.4881L232.461 61.9894L209.488 51.7684L208.677 51.3944L207.928 51.8307L195.505 58.624L146.314 36.125V24.8443V23.6602L145.252 23.1616L125.401 14.3115L124.652 14L123.903 14.3739L18.1543 63.8592L17.0304 64.3577L17.1554 65.6043L20.5887 102.625L10.9129 107.611L9.85156 108.172L9.97634 109.356L17.0929 179.159V179.969L17.9045 180.405L28.5167 187.386L29.2035 194.74V195.612L30.015 196.111L36.1951 200.224L37.3187 212.751V213.562L38.0678 214.06L95.8113 253.324L96.8102 254.01L97.809 253.324L106.861 247.154L137.449 267.472L138.448 268.157L139.447 267.41L159.673 252.826L160.359 252.327V251.455L160.671 237.619L204.369 206.831L214.045 212.377L215.044 212.938L215.98 212.253L233.335 199.788L234.021 199.289V198.479L244.446 81.9956L244.571 80.749L243.448 80.2505V80.3751Z" fill="white"/>
<path d="M126.705 124L19.0215 65.415L124.77 15.9297L144.559 24.7798L61.7205 65.1033L82.3833 75.8854L125.457 54.0096L146.931 64.2932L103.92 86.9791L126.268 98.696L208.795 53.3865L231.767 63.6075L126.705 124Z" fill="black"/>
<path d="M160.796 157.033L161.421 130.919L138.885 144.506L138.386 265.975L158.674 251.391L160.235 182.274L180.96 168.812L181.896 143.882L160.796 157.033Z" fill="black"/>
<path d="M223.583 93.4597L221.71 119.013L202.296 131.103L200.86 155.908L219.963 143.319L214.969 210.878L232.323 198.413L242.685 81.9297L223.583 93.4597Z" fill="black"/>
<path d="M180.084 192.556L199.498 179.468L200.872 155.909L180.958 168.81L180.084 192.556Z" fill="black"/>
<path d="M92.3762 131.294L28.7021 95.0215L30.9496 120.574L93.3125 157.533L92.3762 131.294Z" fill="black"/>
<path d="M37.1152 190.936L38.9881 212.624L96.7316 251.826L95.9201 229.639L37.1152 190.936Z" fill="black"/>
<path d="M11.7793 109.166L18.8959 178.969L37.124 190.935L30.944 120.571L11.7793 109.166Z" fill="black"/>
<path d="M117.266 243.662L116.268 196.296L73.1318 169.621L74.3179 193.554L95.1055 206.704L95.9171 229.639L117.266 243.662Z" fill="black"/>
<path d="M74.9539 71.9643L61.7197 65.1086L144.558 24.7852L144.496 37.25L74.9539 71.9643Z" fill="#808080"/>
<path d="M146.878 77.2612L146.941 64.2979L103.93 86.9837L116.602 93.6524L146.878 77.2612Z" fill="#808080"/>
<path d="M181.898 143.89L170.224 137.595L161.11 143.204L160.798 157.04L181.898 143.89Z" fill="#808080"/>
<path d="M221.722 119.02L210.048 113.037L190.571 125.066L202.307 131.111L221.722 119.02Z" fill="#808080"/>
<path d="M149.302 124.504L126.704 137.779L138.877 144.51L161.413 130.923L149.302 124.504Z" fill="#808080"/>
<path d="M223.598 93.4648L242.7 81.9349L230.839 76.5127L211.612 87.8557L223.598 93.4648Z" fill="#808080"/>
<path d="M189.389 149.683L200.876 155.915L180.962 168.816L181.461 154.669L189.389 149.683Z" fill="#808080"/>
<path d="M39.7516 89.416L103.675 124.878L104.237 151.054L93.3125 157.536L92.3762 131.298L28.7021 95.0251L39.7516 89.416Z" fill="#808080"/>
<path d="M83.6193 163.334L127.067 189.448L127.504 236.752L117.266 243.67L116.268 196.303L73.1318 169.629L83.6193 163.334Z" fill="#808080"/>
<path d="M106.669 236.687L95.9316 229.645L96.7432 251.832L106.856 245.039L106.669 236.687Z" fill="#808080"/>
<path d="M30.9463 120.578L42.9321 127.683L47.3642 184.959L95.4317 216.058L95.9312 229.645L37.1263 190.942L30.9463 120.578Z" fill="#808080"/>
<path d="M29.8203 107.74L30.944 120.579L11.7793 109.174L22.5165 103.627L29.8203 107.74Z" fill="#808080"/>
<path d="M343.155 162.955C329.234 162.955 317.373 158.218 307.572 148.807C297.771 139.334 292.84 127.929 292.84 114.467C292.84 101.005 297.646 89.537 307.322 80.0637C316.998 70.5904 328.672 65.916 342.405 65.916C352.643 65.916 361.882 68.5959 370.185 73.8935C378.487 79.191 384.48 86.2961 388.226 95.2084H367.376C364.816 91.1573 361.321 87.9788 356.826 85.6104C352.331 83.2421 347.587 82.0579 342.593 82.0579C333.604 82.0579 325.925 85.1742 319.683 91.4689C313.378 97.7636 310.256 105.43 310.256 114.529C310.256 123.628 313.44 131.232 319.745 137.526C326.05 143.821 333.729 146.937 342.78 146.937C351.832 146.937 359.198 143.821 365.191 137.651C367.563 135.158 369.436 132.478 370.934 129.611H331.918V113.532H392.783V114.529C392.783 127.991 387.976 139.396 378.363 148.869C368.749 158.343 357.013 163.017 343.28 163.017H343.217L343.155 162.955Z" fill="white"/>
<path d="M409.644 161.085V67.7236H459.958V83.8032H426.935V106.801H458.398V122.88H426.935V145.005H459.958V161.085H409.644Z" fill="white"/>
<path d="M499.213 161.085H481.921V67.7236H506.08L530.987 138.648L555.708 67.7236H579.866V161.085H562.575V90.2227L537.854 161.085H524.058L499.275 90.4097V161.085H499.213Z" fill="white"/>
<path d="M296.839 215.616V184.703H313.507V190.063H302.582V197.667H313.007V203.026H302.582V210.381H313.507V215.741H296.839V215.616Z" fill="white"/>
<path d="M351.961 215.616H346.218V184.703H352.835L365.694 207.327V184.703H371.438V215.616H365.133L351.961 192.805V215.616Z" fill="white"/>
<path d="M419.312 216.24C414.693 216.24 410.76 214.682 407.514 211.566C404.268 208.45 402.645 204.648 402.645 200.223C402.645 195.798 404.268 191.934 407.451 188.818C410.635 185.702 414.505 184.144 419.062 184.144C422.433 184.144 425.492 185.016 428.239 186.761C430.986 188.506 432.983 190.875 434.232 193.804H427.302C426.429 192.495 425.305 191.436 423.807 190.625C422.308 189.815 420.748 189.441 419.062 189.441C416.066 189.441 413.569 190.501 411.447 192.557C409.387 194.614 408.325 197.169 408.325 200.223C408.325 203.277 409.387 205.77 411.447 207.827C413.569 209.884 416.066 210.943 419.062 210.943C422.059 210.943 424.493 209.884 426.491 207.827C427.24 207.017 427.927 206.082 428.364 205.147H415.442V199.787H435.605V200.098C435.605 204.524 433.982 208.325 430.798 211.442C427.615 214.558 423.744 216.116 419.187 216.116L419.312 216.24Z" fill="white"/>
<path d="M466.948 184.703H472.691V215.616H466.948V184.703Z" fill="white"/>
<path d="M511.585 215.616H505.842V184.703H512.459L525.319 207.327V184.703H531.062V215.616H524.757L511.585 192.805V215.616Z" fill="white"/>
<path d="M563.707 215.616V184.703H580.375V190.063H569.45V197.667H579.875V203.026H569.45V210.381H580.375V215.741H563.707V215.616Z" fill="white"/>
<path d="M640.98 45.4121C640.98 49.8994 639.232 54.1998 635.798 58.2508C633.114 61.4293 627.184 66.9761 617.945 75.0782H640.917V84.9877H603.337V75.0782C615.885 63.6729 623.563 56.3811 626.372 53.2026C629.181 50.0241 630.617 46.97 630.617 44.1031C630.617 41.6102 629.806 39.5535 628.183 37.9331C626.559 36.375 624.437 35.5648 621.878 35.5648C619.131 35.5648 617.008 36.562 615.448 38.5564C613.887 40.5508 613.138 43.2931 613.138 46.7832H602.65C602.65 40.3638 604.461 35.2533 608.082 31.3892C611.702 27.5251 616.509 25.6553 622.564 25.6553C627.995 25.6553 632.365 27.5251 635.861 31.2022C639.294 34.8793 641.042 39.6158 641.042 45.4743L640.98 45.4121Z" fill="white"/>
</svg>
