<svg width="642" height="282" viewBox="0 0 642 282" fill="none" xmlns="http://www.w3.org/2000/svg">
<path d="M243.204 80.31L232.477 75.3912L233.288 63.6858V62.4405L232.228 61.9425L209.278 51.7314L208.467 51.3577L207.719 51.7936L195.309 58.5802L146.167 36.1033V24.8338V23.6508L145.106 23.1526L125.275 14.3113L124.527 14L123.778 14.3737L18.1352 63.8103L17.0125 64.3084L17.1374 65.5536L20.5673 102.538L10.9011 107.519L9.84082 108.079L9.96548 109.262L17.075 178.997V179.806L17.8857 180.242L28.4873 187.215L29.1734 194.562V195.434L29.9842 195.932L36.1581 200.041L37.2805 212.556V213.366L38.0289 213.864L95.7147 253.089L96.7126 253.774L97.7104 253.089L106.753 246.925L137.311 267.223L138.309 267.908L139.307 267.161L159.512 252.591L160.198 252.093V251.221L160.51 237.399L204.164 206.641L213.83 212.183L214.828 212.743L215.764 212.058L233.101 199.606L233.787 199.108V198.298L244.201 81.9288L244.326 80.6836L243.204 80.1854V80.31Z" fill="white"/>
<path d="M126.577 123.893L19.001 65.3656L124.644 15.9912L144.413 24.7703L61.6573 65.0544L82.2995 75.8258L125.33 53.9716L146.783 64.2449L103.815 86.9086L126.141 98.6763L208.585 53.3489L231.534 63.56L126.577 123.893Z" fill="black"/>
<path d="M160.634 156.955L161.258 130.867L138.745 144.44L138.246 265.791L158.514 251.221L160.073 182.172L180.778 168.723L181.713 143.755L160.634 156.955Z" fill="black"/>
<path d="M223.359 93.4454L221.488 118.911L202.094 131.052L200.659 155.771L219.742 143.193L214.753 210.749L232.09 198.234L242.443 81.9268L223.359 93.4454Z" fill="black"/>
<path d="M179.903 192.445L199.298 179.308L200.67 155.772L180.776 168.723L179.903 192.445Z" fill="black"/>
<path d="M92.2833 131.178L28.6729 95.0029L30.918 120.468L93.2187 157.39L92.2833 131.178Z" fill="black"/>
<path d="M37.0781 190.826L38.9491 212.431L96.635 251.657L95.8242 229.492L37.0781 190.826Z" fill="black"/>
<path d="M11.7666 109.137L18.8761 178.809L37.086 190.826L30.9121 120.469L11.7666 109.137Z" fill="black"/>
<path d="M117.149 243.499L116.152 196.117L73.0586 169.469L74.2435 193.378L95.0103 206.515L95.8211 229.49L117.149 243.499Z" fill="black"/>
<path d="M74.8801 71.9667L61.6592 65.0556L144.415 24.7715L144.353 37.2241L74.8801 71.9667Z" fill="#808080"/>
<path d="M146.733 77.1958L146.795 64.2451L103.827 86.9088L116.487 93.5709L146.733 77.1958Z" fill="#808080"/>
<path d="M181.713 143.754L170.051 137.527L160.946 143.131L160.634 156.953L181.713 143.754Z" fill="#808080"/>
<path d="M221.496 118.912L209.834 112.997L190.377 124.952L202.101 131.053L221.496 118.912Z" fill="#808080"/>
<path d="M149.154 124.392L126.578 137.654L138.739 144.44L161.252 130.867L149.154 124.392Z" fill="#808080"/>
<path d="M223.374 93.4461L242.457 81.9274L230.608 76.4482L211.4 87.7801L223.374 93.4461Z" fill="#808080"/>
<path d="M189.198 149.546L200.673 155.772L180.779 168.723L181.278 154.589L189.198 149.546Z" fill="#808080"/>
<path d="M39.7112 89.3379L103.571 124.765L104.132 150.916L93.2187 157.391L92.2833 131.179L28.6729 95.0038L39.7112 89.3379Z" fill="#808080"/>
<path d="M83.5355 163.182L126.94 189.27L127.377 236.527L117.149 243.501L116.152 196.119L73.0586 169.47L83.5355 163.182Z" fill="#808080"/>
<path d="M106.563 236.526L95.8369 229.49L96.6477 251.656L106.75 244.807L106.563 236.526Z" fill="#808080"/>
<path d="M30.915 120.47L42.8888 127.568L47.3166 184.849L95.336 215.856L95.835 229.492L37.0889 190.827L30.915 120.47Z" fill="#808080"/>
<path d="M29.7896 107.644L30.9121 120.47L11.7666 109.138L22.4931 103.597L29.7896 107.644Z" fill="#808080"/>
<path d="M342.804 162.808C328.897 162.808 317.048 158.077 307.257 148.675C297.466 139.211 292.539 127.817 292.539 114.368C292.539 100.919 297.341 89.4629 307.007 79.9989C316.673 70.535 328.335 65.8652 342.055 65.8652C352.283 65.8652 361.513 68.5425 369.807 73.8349C378.101 79.1272 384.088 86.2252 387.83 95.1288H367C364.444 91.0817 360.951 87.9063 356.461 85.5403C351.971 83.1743 347.231 81.9914 342.242 81.9914C333.262 81.9914 325.591 85.1045 319.355 91.393C313.056 97.6816 309.938 105.34 309.938 114.43C309.938 123.521 313.119 131.117 319.418 137.405C325.716 143.694 333.387 146.807 342.43 146.807C351.472 146.807 358.831 143.694 364.818 137.53C367.188 135.039 369.058 132.362 370.555 129.498H331.578V113.434H392.382V114.43C392.382 127.879 387.58 139.273 377.976 148.737C368.372 158.201 356.648 162.871 342.928 162.871H342.866L342.804 162.808Z" fill="white"/>
<path d="M409.227 161.002V67.7324H459.491V83.7962H426.501V106.771H457.932V122.835H426.501V144.938H459.491V161.002H409.227Z" fill="white"/>
<path d="M498.706 161.002H481.432V67.7324H505.566L530.449 138.588L555.145 67.7324H579.279V161.002H562.005V90.2093L537.309 161.002H523.527L498.769 90.3961V161.002H498.706Z" fill="white"/>
<path d="M296.535 215.486V184.604H313.186V189.958H302.273V197.554H312.687V202.909H302.273V210.256H313.186V215.61H296.535V215.486Z" fill="white"/>
<path d="M351.605 215.486H345.867V184.604H352.478L365.324 207.205V184.604H371.062V215.486H364.763L351.605 192.698V215.486Z" fill="white"/>
<path d="M418.887 216.045C414.272 216.045 410.344 214.488 407.101 211.375C403.858 208.262 402.236 204.464 402.236 200.043C402.236 195.623 403.858 191.762 407.038 188.649C410.219 185.536 414.085 183.979 418.638 183.979C422.005 183.979 425.061 184.851 427.805 186.594C430.549 188.338 432.545 190.704 433.792 193.63H426.87C425.997 192.323 424.874 191.264 423.377 190.455C421.881 189.645 420.322 189.272 418.638 189.272C415.644 189.272 413.15 190.33 411.03 192.385C408.972 194.44 407.911 196.992 407.911 200.043C407.911 203.094 408.972 205.585 411.03 207.639C413.15 209.694 415.644 210.752 418.638 210.752C421.631 210.752 424.063 209.694 426.059 207.639C426.807 206.83 427.493 205.896 427.93 204.962H415.021V199.607H435.164V199.919C435.164 204.339 433.542 208.137 430.362 211.25C427.181 214.364 423.315 215.92 418.763 215.92L418.887 216.045Z" fill="white"/>
<path d="M466.475 184.539H472.212V215.421H466.475V184.539Z" fill="white"/>
<path d="M511.065 215.486H505.328V184.604H511.939L524.785 207.205V184.604H530.523V215.486H524.224L511.065 192.698V215.486Z" fill="white"/>
<path d="M563.135 215.486V184.604H579.786V189.958H568.872V197.554H579.287V202.909H568.872V210.256H579.786V215.61H563.135V215.486Z" fill="white"/>
<path d="M626.509 41.458C626.509 39.7147 626.073 38.3449 625.137 37.3487C624.264 36.4147 622.955 35.9166 621.333 35.9166C619.836 35.9166 618.589 36.4147 617.654 37.3487C616.718 38.2826 616.219 39.5901 616.094 41.1467H605.555C605.68 36.726 607.239 33.1149 610.108 30.313C612.976 27.5112 616.656 26.0791 621.021 26.0791C625.698 26.0791 629.565 27.5111 632.558 30.4375C635.552 33.3638 637.111 37.0997 637.111 41.5826C637.111 45.7542 635.552 49.1786 632.371 51.8559L632.184 51.9805C633.369 52.5408 634.492 53.288 635.427 54.1597C639.169 57.2729 641.04 61.2577 641.04 66.1142C641.04 72.0291 639.169 76.8856 635.427 80.6836C631.685 84.4817 626.946 86.4118 621.146 86.4118C615.346 86.4118 610.981 84.7308 607.364 81.3063C603.747 77.8819 601.751 73.3367 601.314 67.6707H611.854C612.29 70.5971 613.226 72.8385 614.785 74.3328C616.344 75.8271 618.464 76.5743 621.146 76.5743C624.015 76.5743 626.26 75.7026 627.881 74.0215C629.503 72.3404 630.313 69.9744 630.313 67.0481C630.313 64.2462 629.378 61.9426 627.507 60.1992C625.636 58.4559 623.266 57.5219 620.335 57.5219H617.092V47.6221H619.525C621.707 47.6221 623.391 47.0617 624.576 46.0032C625.698 44.9447 626.322 43.4505 626.322 41.3958L626.509 41.458Z" fill="white"/>
</svg>
