<svg width="642" height="282" viewBox="0 0 642 282" fill="none" xmlns="http://www.w3.org/2000/svg">
<path d="M266.761 75.1653L254.995 69.7702L255.885 56.9311V55.5653L254.722 55.0189L229.549 43.8189L228.66 43.4092L227.839 43.8873L214.227 51.3312L160.325 26.6775V14.3166V13.019L159.162 12.4726L137.41 2.77508L136.589 2.43359L135.768 2.84333L19.8936 57.0677L18.6622 57.6141L18.7992 58.9799L22.5613 99.5458L11.9588 105.009L10.7959 105.624L10.9326 106.921L18.7307 183.409V184.297L19.62 184.775L31.2484 192.424L32.0009 200.482V201.438L32.8902 201.985L39.6621 206.492L40.8933 220.219V221.107L41.7141 221.653L104.987 264.677L106.082 265.429L107.176 264.677L117.095 257.917L150.612 280.18L151.707 280.931L152.801 280.112L174.964 264.131L175.716 263.585V262.629L176.058 247.468L223.94 213.731L234.543 219.809L235.637 220.424L236.663 219.673L255.679 206.014L256.432 205.468V204.58L267.855 76.9409L267.992 75.5751L266.761 75.0287V75.1653Z" fill="white"/>
<path d="M138.836 123.037L20.8408 58.8415L136.716 4.61719L158.4 14.3147L67.6286 58.5001L90.27 70.3147L137.468 46.344L160.999 57.6123L113.869 82.4708L138.357 95.3099L228.786 45.5928L253.959 56.7928L138.836 123.037Z" fill="black"/>
<path d="M176.192 159.233L176.877 130.618L152.183 145.506L151.636 278.608L173.867 262.628L175.577 186.891L198.287 172.14L199.313 144.823L176.192 159.233Z" fill="black"/>
<path d="M244.99 89.5726L242.938 117.504L221.665 130.821L220.092 158.002V157.934L241.023 144.138L235.551 218.236L254.567 204.578L265.922 76.9385L244.99 89.5726Z" fill="black"/>
<path d="M197.327 198.158L218.601 183.748L220.106 158.002L198.285 172.139L197.327 198.158Z" fill="black"/>
<path d="M101.221 131.027L31.4492 91.2803L33.9118 119.212L102.247 159.71L101.221 131.027Z" fill="black"/>
<path d="M40.667 196.384L42.7192 220.081L105.992 263.106L105.103 238.794L40.667 196.384Z" fill="black"/>
<path d="M12.9053 106.783L20.7033 183.271L40.677 196.383L33.9051 119.213L12.9053 106.783Z" fill="black"/>
<path d="M128.494 254.16L127.399 202.189L80.1328 173.028L81.4325 199.253L104.211 213.663L105.1 238.794L128.494 254.16Z" fill="black"/>
<path d="M82.1294 66.0159L67.6279 58.5037L158.399 14.3184L158.331 27.9085L82.1294 66.0159Z" fill="#808080"/>
<path d="M160.941 71.7518L161.01 57.6152L113.88 82.4738L127.766 89.781L160.941 71.7518Z" fill="#808080"/>
<path d="M199.311 144.826L186.519 137.929L176.533 144.075L176.19 159.236L199.311 144.826Z" fill="#808080"/>
<path d="M242.949 117.509L230.157 111.021L208.815 124.202L221.675 130.826L242.949 117.509Z" fill="#808080"/>
<path d="M163.597 123.517L138.835 138.131L152.174 145.507L176.867 130.619L163.597 123.517Z" fill="#808080"/>
<path d="M245.007 89.5756L265.939 76.9415L252.942 71L231.874 83.3611L245.007 89.5756Z" fill="#808080"/>
<path d="M207.524 151.177L220.11 158.006L198.289 172.143L198.836 156.64L207.524 151.177Z" fill="#808080"/>
<path d="M43.5567 85.1387L113.602 123.997L114.217 152.612L102.247 159.714L101.221 131.031L31.4492 91.285L43.5567 85.1387Z" fill="#808080"/>
<path d="M91.6245 166.133L139.233 194.679L139.712 246.582L128.494 254.162L127.399 202.191L80.1328 173.03L91.6245 166.133Z" fill="#808080"/>
<path d="M116.882 246.514L105.116 238.797L106.005 263.109L117.087 255.665L116.882 246.514Z" fill="#808080"/>
<path d="M33.9072 119.215L47.0407 127.068L51.8973 189.829L104.568 223.908L105.115 238.795L40.6791 196.385L33.9072 119.215Z" fill="#808080"/>
<path d="M32.6739 105.215L33.9051 119.215L12.9053 106.786L24.6706 100.708L32.6739 105.215Z" fill="#808080"/>
<path d="M376.015 107.332C360.761 107.332 347.764 102.141 337.025 91.8293C326.286 81.4488 320.882 68.9513 320.882 54.2001C320.882 39.4488 326.149 26.883 336.751 16.5025C347.354 6.12198 360.145 1 375.194 1C386.412 1 396.536 3.93668 405.633 9.74156C414.731 15.5464 421.298 23.3318 425.402 33.0976H402.555C399.751 28.6586 395.92 25.1756 390.995 22.5805C386.07 19.9854 380.871 18.6879 375.399 18.6879C365.549 18.6879 357.135 22.1025 350.295 29C343.386 35.8976 339.966 44.2976 339.966 54.2683C339.966 64.239 343.455 72.5708 350.364 79.4683C357.272 86.3659 365.686 89.7805 375.604 89.7805C385.523 89.7805 393.594 86.3659 400.161 79.6049C402.76 76.8732 404.812 73.9366 406.454 70.7951H363.702V53.1757H430.395V54.2683C430.395 69.0195 425.128 81.5172 414.594 91.8976C404.06 102.278 391.2 107.4 376.152 107.4H376.083L376.015 107.332Z" fill="white"/>
<path d="M448.87 105.35V3.04785H504.003V20.6674H467.818V45.8674H502.293V63.4869H467.818V87.7308H504.003V105.35H448.87Z" fill="white"/>
<path d="M547.016 105.35H528.068V3.04785H554.54L581.833 80.765L608.921 3.04785H635.393V105.35H616.445V27.7015L589.358 105.35H574.241L547.084 27.9064V105.35H547.016Z" fill="white"/>
<path d="M328.737 117.645H358.766C370.942 117.645 380.382 120.376 387.085 125.908C393.789 131.44 397.14 139.157 397.14 149.196C397.14 160.464 393.72 168.932 386.948 174.737C382.707 178.22 377.235 180.747 370.463 182.249L398.167 220.015H375.799L347.753 179.176V220.015H328.806V117.713L328.737 117.645ZM347.685 166.679H357.33C364.239 166.679 369.437 165.381 372.857 162.786C376.277 160.191 378.056 156.23 378.056 151.04C378.056 145.849 376.346 141.82 372.857 139.157C369.369 136.493 364.17 135.196 357.33 135.196H347.685V166.679Z" fill="white"/>
<path d="M475.544 135.264H456.459V117.645H513.576V135.264H494.491V219.947H475.544V135.264Z" fill="white"/>
<path d="M615.773 144.687C615.362 140.862 614.2 137.994 612.284 136.082C610.369 134.17 607.77 133.213 604.418 133.213C601.271 133.213 598.672 134.238 596.688 136.218C594.705 138.199 593.679 140.726 593.679 143.867C593.679 147.009 594.705 149.604 596.688 151.448C598.672 153.223 602.571 155.067 608.317 157.048C618.851 160.667 626.375 164.901 630.822 169.818C635.268 174.735 637.525 181.223 637.525 189.282C637.525 198.843 634.379 206.696 628.222 212.843C621.998 218.989 613.994 221.994 604.281 221.994C595.047 221.994 587.386 219.126 581.229 213.321C575.073 207.584 571.653 200.072 570.9 190.784H590.806C591.285 195.223 592.721 198.57 595.115 200.891C597.509 203.213 600.656 204.374 604.692 204.374C608.727 204.374 612.216 203.213 614.884 200.823C617.551 198.433 618.851 195.36 618.851 191.604C618.851 187.438 617.551 184.228 615.021 181.906C612.49 179.584 607.565 177.194 600.177 174.667C591.079 171.594 584.581 167.77 580.75 163.262C576.92 158.755 575.005 152.745 575.005 145.233C575.005 136.56 577.809 129.526 583.487 123.994C589.096 118.462 596.346 115.73 605.17 115.73C613.31 115.73 620.288 118.53 626.102 124.062C631.848 129.594 634.994 136.56 635.336 144.823H615.841L615.773 144.687Z" fill="white"/>
<path d="M325.264 279.567V245.693H343.527V251.567H331.557V259.898H342.98V265.771H331.557V273.83H343.527V279.703H325.264V279.567Z" fill="white"/>
<path d="M385.665 279.567H379.372V245.693H386.623L400.714 270.484V245.693H407.007V279.567H400.098L385.665 254.571V279.567Z" fill="white"/>
<path d="M459.466 280.251C454.404 280.251 450.095 278.544 446.538 275.129C442.981 271.714 441.202 267.548 441.202 262.7C441.202 257.851 442.981 253.617 446.469 250.202C449.958 246.787 454.199 245.08 459.192 245.08C462.886 245.08 466.238 246.036 469.247 247.948C472.257 249.861 474.446 252.456 475.814 255.665H468.221C467.264 254.231 466.032 253.07 464.391 252.183C462.749 251.295 461.039 250.885 459.192 250.885C455.909 250.885 453.173 252.046 450.847 254.3C448.59 256.553 447.427 259.353 447.427 262.7C447.427 266.046 448.59 268.778 450.847 271.031C453.173 273.285 455.909 274.446 459.192 274.446C462.476 274.446 465.143 273.285 467.332 271.031C468.153 270.144 468.905 269.119 469.384 268.095H455.225V262.222H477.319V262.563C477.319 267.412 475.54 271.578 472.052 274.992C468.563 278.407 464.322 280.114 459.329 280.114L459.466 280.251Z" fill="white"/>
<path d="M511.662 245.693H517.955V279.567H511.662V245.693Z" fill="white"/>
<path d="M560.574 279.567H554.281V245.693H561.532L575.623 270.484V245.693H581.916V279.567H575.007L560.574 254.571V279.567Z" fill="white"/>
<path d="M617.688 279.567V245.693H635.951V251.567H623.981V259.898H635.404V265.771H623.981V273.83H635.951V279.703H617.688V279.567Z" fill="white"/>
</svg>
