<svg width="138" height="207" viewBox="0 0 138 207" fill="none" xmlns="http://www.w3.org/2000/svg">
<path d="M32.8394 30.1021C34.5783 20.9904 45.0019 13.9015 49.9963 11.4961C39.1284 24.103 41.4179 33.9276 36.9547 45.2303C40.8907 39.1893 43.4512 36.2372 49.5761 32.8843C55.2487 28.6907 58.0372 26.0077 62.1975 20.5383C62.835 36.6808 42.2294 43.5204 32.2018 57.6343C31.6898 52.2535 31.1005 39.2138 32.8394 30.1021Z" fill="#EC1E24"/>
<path d="M20.2904 61.1704C18.5293 46.3311 23.9716 33.0867 30.0287 28.2758C25.5103 43.2323 31.8499 61.8524 28.781 74.3502C30.7095 67.4028 30.7663 62.8823 35.5931 57.8367C39.735 52.1262 48.3775 49.2077 50.6924 42.7375C49.9393 63.0533 35.5935 63.2852 27.9948 87.6104C25.8822 82.6352 21.3835 70.3819 20.2904 61.1704Z" fill="#EC1E24"/>
<path d="M17.9734 97.9762C12.0385 84.2618 12.7643 67.5133 17.1909 61.1699C17.1426 76.794 30.3763 94.8903 31.0131 107.744C30.8723 100.535 27.8324 94.9182 31.0131 88.7022C33.3472 82.0451 42.3574 74.1181 42.7235 67.256C47.8169 86.9374 34.3734 95.1916 34.0553 120.674C30.607 116.512 21.6575 106.489 17.9734 97.9762Z" fill="#EC1E24"/>
<path d="M28.6962 133.885C14.7035 123.082 11.2644 105.277 13.3651 97.8323C18.445 112.608 36.2313 125.365 42.4333 136.667C39.6221 127.973 39.2416 128.639 39.2416 120.201C39.2416 110.376 41.7378 101.861 41.0712 95.108C52.3394 112.029 44.5449 125.229 52.6042 149.406C47.9812 146.605 36.0388 139.554 28.6962 133.885Z" fill="#EC1E24"/>
<path d="M49.9389 163.909C33.2405 158.108 22.6044 139.959 22.2328 132.232C31.7409 144.63 53.5611 152.121 63.0307 160.87C57.6046 153.518 57.4554 154.271 54.7765 146.27C51.657 136.952 52.9177 127.034 50.1418 120.843C66.1993 133.311 61.4017 149.354 76.7197 169.721C70.3997 169.721 58.7013 166.953 49.9389 163.909Z" fill="#EC1E24"/>
<path d="M83.0944 182.976C65.4759 184.418 48.954 179.588 41.1871 162.663C52.4028 176.632 81.6433 170.73 93.841 174.905C83.0944 171.227 83.9095 173.159 78.2252 166.923C71.606 159.662 72.3698 151.844 67.3282 147.303C84.8039 156.374 79.5004 163.909 109.939 177.468C104.158 180.022 92.3396 182.219 83.0944 182.976Z" fill="#EC1E24"/>
<path d="M53.4165 11.8731C57.1841 7.81576 64.4584 3.03384 74.8047 0.222656C66.9508 6.13484 62.9803 14.4815 59.9663 17.7274C56.9522 20.9733 51.069 27.639 44.1714 31.8123C46.4249 24.1453 49.0983 16.1044 53.4165 11.8731Z" fill="#EC1E24"/>
<path d="M109.571 206.222L104.471 201.498C113.972 192.706 119.57 189.384 131.684 181.385C121.599 177.787 103.804 200.368 86.937 198.513C70.0699 196.658 64.5441 191.838 60.7959 186.747C66.0608 187.915 78.435 191.381 85.1982 190.079C96.7907 187.848 102.761 181.153 118.787 179.038C125.817 178.11 134.592 178.873 137.799 180.284C125.26 187.3 119.309 195.71 109.571 206.222Z" fill="#EC1E24"/>
</svg>
