<svg width="138" height="207" viewBox="0 0 138 207" fill="none" xmlns="http://www.w3.org/2000/svg">
<path d="M105.149 30.1021C103.41 20.9904 92.9864 13.9015 87.992 11.4961C98.8599 24.103 96.5704 33.9276 101.034 45.2303C97.0976 39.1893 94.5371 36.2372 88.4122 32.8843C82.7396 28.6907 79.9511 26.0077 75.7908 20.5383C75.1532 36.6808 95.7589 43.5204 105.786 57.6343C106.298 52.2535 106.888 39.2138 105.149 30.1021Z" fill="#EC1E24"/>
<path d="M117.698 61.1704C119.459 46.3311 114.017 33.0867 107.96 28.2758C112.478 43.2323 106.138 61.8524 109.207 74.3502C107.279 67.4028 107.222 62.8823 102.395 57.8367C98.2533 52.1262 89.6107 49.2077 87.2959 42.7375C88.049 63.0533 102.395 63.2852 109.993 87.6104C112.106 82.6352 116.605 70.3819 117.698 61.1704Z" fill="#EC1E24"/>
<path d="M120.015 97.9762C125.95 84.2618 125.224 67.5133 120.797 61.1699C120.846 76.794 107.612 94.8903 106.975 107.744C107.116 100.535 110.156 94.9182 106.975 88.7022C104.641 82.0451 95.6309 74.1181 95.2648 67.256C90.1714 86.9374 103.615 95.1916 103.933 120.674C107.381 116.512 116.331 106.489 120.015 97.9762Z" fill="#EC1E24"/>
<path d="M109.292 133.885C123.285 123.082 126.724 105.277 124.623 97.8323C119.543 112.608 101.757 125.365 95.555 136.667C98.3662 127.973 98.7466 128.639 98.7466 120.201C98.7466 110.376 96.2505 101.861 96.9171 95.108C85.6488 112.029 93.4434 125.229 85.3841 149.406C90.0071 146.605 101.95 139.554 109.292 133.885Z" fill="#EC1E24"/>
<path d="M88.0494 163.909C104.748 158.108 115.384 139.959 115.755 132.232C106.247 144.63 84.4272 152.121 74.9576 160.87C80.3837 153.518 80.5328 154.271 83.2118 146.27C86.3313 136.952 85.0705 127.034 87.8465 120.843C71.7889 133.311 76.5866 149.354 61.2686 169.721C67.5886 169.721 79.2869 166.953 88.0494 163.909Z" fill="#EC1E24"/>
<path d="M54.8939 182.976C72.5124 184.418 89.0343 179.588 96.8012 162.663C85.5855 176.632 56.345 170.73 44.1473 174.905C54.8939 171.227 54.0788 173.159 59.7631 166.923C66.3823 159.662 65.6184 151.844 70.6601 147.303C53.1843 156.374 58.4879 163.909 28.049 177.468C33.8298 180.022 45.6487 182.219 54.8939 182.976Z" fill="#EC1E24"/>
<path d="M84.5718 11.8731C80.8042 7.81576 73.5299 3.03384 63.1836 0.222656C71.0375 6.13484 75.008 14.4815 78.022 17.7274C81.0361 20.9733 86.9193 27.639 93.8168 31.8123C91.5634 24.1453 88.89 16.1044 84.5718 11.8731Z" fill="#EC1E24"/>
<path d="M28.4168 206.222L33.5176 201.498C24.0163 192.706 18.4183 189.384 6.30412 181.385C16.3896 177.787 34.1841 200.368 51.0512 198.513C67.9184 196.658 73.4441 191.838 77.1924 186.747C71.9274 187.915 59.5533 191.381 52.7901 190.079C41.1976 187.848 35.2275 181.153 19.2008 179.038C12.1709 178.11 3.39632 178.873 0.189056 180.284C12.7285 187.3 18.6791 195.71 28.4168 206.222Z" fill="#EC1E24"/>
</svg>
