<svg width="56" height="32" viewBox="0 0 56 32" fill="none" xmlns="http://www.w3.org/2000/svg">
<path d="M45 10C45 8.34315 43.6569 7 42 7C40.3431 7 39 8.34315 39 10C39 11.6569 40.3431 13 42 13C43.6569 13 45 11.6569 45 10Z" fill="white"/>
<path d="M44 8H35C33.3431 8 32 9.34315 32 11C32 12.6569 33.3431 14 35 14H44C45.6569 14 47 12.6569 47 11C47 9.34315 45.6569 8 44 8Z" fill="white"/>
<path d="M41 8C41 6.34315 39.6569 5 38 5C36.3431 5 35 6.34315 35 8C35 9.65685 36.3431 11 38 11C39.6569 11 41 9.65685 41 8Z" fill="white"/>
<path d="M41.0656 20.7113C41.0656 19.8276 41.7819 19.1113 42.6656 19.1113C43.5493 19.1113 44.2656 19.8276 44.2656 20.7113V20.8446C44.2656 21.7282 43.5493 22.4446 42.6656 22.4446C41.7819 22.4446 41.0656 21.7282 41.0656 20.8446V20.7113Z" fill="white"/>
<path d="M41.6666 19.666H46.3334C47.2538 19.666 48 20.4122 48 21.3326V21.3326C48 22.2531 47.2538 22.9993 46.3334 22.9993H41.6666C40.7462 22.9993 40 22.2531 40 21.3326V21.3326C40 20.4122 40.7462 19.666 41.6666 19.666Z" fill="white"/>
<path d="M43.1984 19.6C43.1984 18.7163 43.9148 18 44.7984 18C45.6821 18 46.3984 18.7163 46.3984 19.6V19.7333C46.3984 20.6169 45.6821 21.3333 44.7984 21.3333C43.9148 21.3333 43.1984 20.6169 43.1984 19.7333V19.6Z" fill="white"/>
<path d="M34 19.5C34 18.6716 33.3284 18 32.5 18C31.6716 18 31 18.6716 31 19.5C31 20.3284 31.6716 21 32.5 21C33.3284 21 34 20.3284 34 19.5Z" fill="white"/>
</svg>
