<svg width="56" height="32" viewBox="0 0 56 32" fill="none" xmlns="http://www.w3.org/2000/svg">
<path d="M27.9991 9.65001C27.9991 8.82158 27.3275 8.15001 26.4991 8.15001C25.6707 8.15001 24.9991 8.82158 24.9991 9.65001C24.9991 10.4784 25.6707 11.15 26.4991 11.15C27.3275 11.15 27.9991 10.4784 27.9991 9.65001Z" fill="white"/>
<path d="M23.9991 14.15C23.9991 13.5977 23.5514 13.15 22.9991 13.15C22.4468 13.15 21.9991 13.5977 21.9991 14.15C21.9991 14.7023 22.4468 15.15 22.9991 15.15C23.5514 15.15 23.9991 14.7023 23.9991 14.15Z" fill="white"/>
<path d="M13.667 8.20079C13.8181 7.91512 14.2475 7.93309 14.3584 8.26231L14.3594 8.26329L14.959 10.067L16.7793 10.108L16.8457 10.1148C16.9928 10.1438 17.0937 10.2564 17.1318 10.3795C17.1752 10.5199 17.1432 10.6939 17.002 10.8062L17.001 10.8053L15.5469 11.9635L16.0752 13.7994L16.0889 13.8629C16.1075 14.0103 16.0423 14.1442 15.9385 14.2232C15.8337 14.3029 15.6855 14.3293 15.5508 14.2623L15.4941 14.2271L13.999 13.1402L12.5059 14.2271C12.3573 14.3354 12.181 14.3133 12.0615 14.2223C11.9434 14.132 11.8752 13.9712 11.9248 13.7994L12.4521 11.9635L10.9971 10.8062L10.9961 10.8053C10.8557 10.6929 10.825 10.5192 10.8682 10.3795C10.9116 10.2391 11.0372 10.1118 11.2207 10.108L13.04 10.067L13.6406 8.26329V8.26134L13.667 8.20079Z" fill="white" stroke="white" stroke-width="0.3"/>
<path d="M22.7344 21.1598C22.8548 20.9329 23.1976 20.9465 23.2861 21.2086L23.2871 21.2096L23.6758 22.3785L24.8535 22.4059L24.9072 22.4107C25.0253 22.434 25.1057 22.5248 25.1357 22.6217C25.1698 22.7321 25.1445 22.8692 25.0322 22.9586L25.0332 22.9596L24.0879 23.7105L24.4316 24.902L24.4424 24.9527C24.457 25.0693 24.4048 25.175 24.3223 25.2379C24.2388 25.3014 24.1206 25.3226 24.0127 25.2691L23.9668 25.2418L23 24.5387L22.0332 25.2418C21.9144 25.3284 21.773 25.3104 21.6777 25.2379C21.5836 25.1662 21.529 25.0379 21.5684 24.902L21.9102 23.7105L20.9668 22.9596C20.8547 22.87 20.8304 22.7316 20.8643 22.6217C20.8984 22.5114 20.9982 22.4091 21.1455 22.4059L22.3232 22.3785L22.7129 21.2096L22.7139 21.2086L22.7344 21.1598Z" fill="white" stroke="white" stroke-width="0.3"/>
<path d="M8 20.15C8.55228 20.15 9 19.7023 9 19.15C9 18.5977 8.55228 18.15 8 18.15C7.44772 18.15 7 18.5977 7 19.15C7 19.7023 7.44772 20.15 8 20.15Z" fill="white"/>
</svg>
