<!-- Generated by IcoMoon.io -->
<svg version="1.1" xmlns="http://www.w3.org/2000/svg" width="1024" height="1024" viewBox="0 0 1024 1024">
<g id="icomoon-ignore">
</g>
<path fill="#fff" d="M32.003 32.001v599.998h257.579l111.21-111.21c5.43-5.43 12.929-8.789 21.21-8.789s15.784 3.359 21.21 8.789l98.79 98.79 158.79-158.79c5.43-5.43 12.929-8.789 21.21-8.789s15.784 3.359 21.21 8.789l111.21 111.21h137.58v-539.999zM302.002 392c-49.707 0-90-40.293-90-90s40.293-90 90-90c49.707 0 90 40.293 90 90v0c0 49.707-40.293 90-90 90v0zM842 692h149.999v300h-959.997v-239.999h269.999c0.002 0 0.004 0 0.006 0 8.283 0 15.78-3.359 21.208-8.79l98.79-98.79 98.79 98.79c5.43 5.43 12.929 8.789 21.21 8.789s15.782-3.357 21.21-8.789l158.79-158.79 98.79 98.79c5.428 5.43 12.927 8.79 21.21 8.79 0.002 0 0.002 0 0.004 0v0z"></path>
</svg>
