<svg width="35" height="36" viewBox="0 0 35 36" fill="none" xmlns="http://www.w3.org/2000/svg">
<g filter="url(#filter0_d_2_5165)">
<path d="M18.5871 5.70479L22.0198 12.9314C22.0978 13.1148 22.2207 13.2737 22.376 13.3922C22.5313 13.5107 22.7137 13.5847 22.9049 13.6068L30.4828 14.7774C30.7022 14.8068 30.9091 14.9007 31.0792 15.0481C31.2494 15.1956 31.3758 15.3904 31.4437 15.61C31.5116 15.8295 31.5182 16.0647 31.4628 16.288C31.4073 16.5113 31.2921 16.7135 31.1305 16.8711L25.6684 22.5218C25.529 22.6576 25.4243 22.8276 25.364 23.0163C25.3037 23.2051 25.2896 23.4065 25.3229 23.6024L26.6399 31.5494C26.678 31.7777 26.6539 32.0127 26.5703 32.2274C26.4867 32.4422 26.347 32.6282 26.1671 32.7643C25.9871 32.9003 25.7741 32.981 25.5524 32.997C25.3306 33.0131 25.109 32.9639 24.9127 32.8551L18.0905 29.0955C17.9158 29.0061 17.7238 28.9596 17.5292 28.9596C17.3346 28.9596 17.1426 29.0061 16.9679 29.0955L10.1456 32.8551C9.94936 32.9639 9.72775 33.0131 9.506 32.997C9.28426 32.981 9.07129 32.9003 8.89133 32.7643C8.71137 32.6282 8.57164 32.4422 8.48805 32.2274C8.40446 32.0127 8.38036 31.7777 8.41849 31.5494L9.73544 23.5124C9.76882 23.3165 9.7547 23.115 9.69437 22.9263C9.63404 22.7376 9.52941 22.5676 9.39001 22.4317L3.86314 16.8711C3.69963 16.7092 3.58463 16.5014 3.53209 16.2727C3.47956 16.0441 3.49172 15.8045 3.56712 15.5829C3.64252 15.3613 3.77791 15.1673 3.9569 15.0244C4.13589 14.8814 4.3508 14.7956 4.57559 14.7774L12.1534 13.6068C12.3447 13.5847 12.5271 13.5107 12.6824 13.3922C12.8377 13.2737 12.9605 13.1148 13.0386 12.9314L16.4713 5.70479C16.5648 5.49432 16.7141 5.31612 16.9015 5.19124C17.089 5.06636 17.3068 5 17.5292 5C17.7516 5 17.9694 5.06636 18.1569 5.19124C18.3443 5.31612 18.4936 5.49432 18.5871 5.70479Z" stroke="#EC1E24" stroke-linecap="round" stroke-linejoin="round" shape-rendering="crispEdges"/>
</g>
<defs>
<filter id="filter0_d_2_5165" x="0" y="0.5" width="35" height="35" filterUnits="userSpaceOnUse" color-interpolation-filters="sRGB">
<feFlood flood-opacity="0" result="BackgroundImageFix"/>
<feColorMatrix in="SourceAlpha" type="matrix" values="0 0 0 0 0 0 0 0 0 0 0 0 0 0 0 0 0 0 127 0" result="hardAlpha"/>
<feOffset dy="-1"/>
<feGaussianBlur stdDeviation="1.5"/>
<feComposite in2="hardAlpha" operator="out"/>
<feColorMatrix type="matrix" values="0 0 0 0 0.933333 0 0 0 0 0 0 0 0 0 0.0155556 0 0 0 1 0"/>
<feBlend mode="normal" in2="BackgroundImageFix" result="effect1_dropShadow_2_5165"/>
<feBlend mode="normal" in="SourceGraphic" in2="effect1_dropShadow_2_5165" result="shape"/>
</filter>
</defs>
</svg>
