<svg width="112" height="112" viewBox="0 0 112 112" fill="none" xmlns="http://www.w3.org/2000/svg">
<path d="M90.3 105H21.7C17.8013 105 14.0623 103.451 11.3055 100.694C8.54875 97.9377 7 94.1987 7 90.3V11.9C7 10.6004 7.51625 9.3541 8.43518 8.43518C9.3541 7.51625 10.6004 7 11.9 7H80.5C81.7996 7 83.0459 7.51625 83.9648 8.43518C84.8838 9.3541 85.4 10.6004 85.4 11.9V70.7H105V90.3C105 94.1987 103.451 97.9377 100.694 100.694C97.9377 103.451 94.1987 105 90.3 105ZM85.4 80.5V90.3C85.4 91.5996 85.9162 92.8459 86.8352 93.7648C87.7541 94.6838 89.0004 95.2 90.3 95.2C91.5996 95.2 92.8459 94.6838 93.7648 93.7648C94.6838 92.8459 95.2 91.5996 95.2 90.3V80.5H85.4ZM26.6 31.5V41.3H65.8V31.5H26.6ZM26.6 51.1V60.9H65.8V51.1H26.6ZM26.6 70.7V80.5H51.1V70.7H26.6Z" fill="white"/>
</svg>
