<svg width="113" height="112" viewBox="0 0 113 112" fill="none" xmlns="http://www.w3.org/2000/svg">
<path d="M39.0652 79.6463H86.2552L94.3822 86.0309V38.1585H98.992C100.215 38.1585 101.387 38.6442 102.252 39.5087C103.116 40.3732 103.602 41.5457 103.602 42.7683V105L83.0653 88.8659H43.6749C42.4523 88.8659 41.2798 88.3802 40.4153 87.5157C39.5508 86.6512 39.0652 85.4787 39.0652 84.2561V79.6463ZM27.3333 70.4268L6.79688 86.561V15.1098C6.79687 13.8872 7.28254 12.7147 8.14704 11.8502C9.01154 10.9857 10.184 10.5 11.4066 10.5H80.553C81.7756 10.5 82.9481 10.9857 83.8126 11.8502C84.6771 12.7147 85.1627 13.8872 85.1627 15.1098V70.4268H27.3333Z" fill="white"/>
</svg>
