<svg width="113" height="112" viewBox="0 0 113 112" fill="none" xmlns="http://www.w3.org/2000/svg">
<path d="M41.7004 62.3V77H71.1004V62.3H105.4V96.6C105.4 97.8996 104.884 99.1459 103.965 100.065C103.046 100.984 101.8 101.5 100.5 101.5H12.3004C11.0008 101.5 9.7545 100.984 8.83557 100.065C7.91664 99.1459 7.40039 97.8996 7.40039 96.6V62.3H41.7004ZM51.5004 52.5H61.3004V67.2H51.5004V52.5ZM31.9004 23.1V8.4C31.9004 7.10044 32.4166 5.8541 33.3356 4.93518C34.2545 4.01625 35.5008 3.5 36.8004 3.5H76.0004C77.2999 3.5 78.5463 4.01625 79.4652 4.93518C80.3841 5.8541 80.9004 7.10044 80.9004 8.4V23.1H100.5C101.8 23.1 103.046 23.6162 103.965 24.5352C104.884 25.4541 105.4 26.7004 105.4 28V52.5H71.1004V42.7H41.7004V52.5H7.40039V28C7.40039 26.7004 7.91664 25.4541 8.83557 24.5352C9.7545 23.6162 11.0008 23.1 12.3004 23.1H31.9004ZM41.7004 13.3V23.1H71.1004V13.3H41.7004Z" fill="white"/>
</svg>
