<svg width="113" height="112" viewBox="0 0 113 112" fill="none" xmlns="http://www.w3.org/2000/svg">
<path d="M17.4119 7.38867H95.1897C96.4789 7.38867 97.7154 7.90082 98.627 8.81246C99.5386 9.72409 100.051 10.9605 100.051 12.2498V99.7498C100.051 101.039 99.5386 102.275 98.627 103.187C97.7154 104.099 96.4789 104.611 95.1897 104.611H17.4119C16.1226 104.611 14.8862 104.099 13.9746 103.187C13.0629 102.275 12.5508 101.039 12.5508 99.7498V12.2498C12.5508 10.9605 13.0629 9.72409 13.9746 8.81246C14.8862 7.90082 16.1226 7.38867 17.4119 7.38867ZM31.9952 55.9998V65.722H41.7174V55.9998H31.9952ZM31.9952 75.4442V85.1665H41.7174V75.4442H31.9952ZM51.4397 55.9998V65.722H61.1619V55.9998H51.4397ZM51.4397 75.4442V85.1665H61.1619V75.4442H51.4397ZM70.8841 55.9998V85.1665H80.6063V55.9998H70.8841ZM31.9952 26.8331V46.2776H80.6063V26.8331H31.9952Z" fill="white"/>
</svg>
