<svg width="112" height="112" viewBox="0 0 112 112" fill="none" xmlns="http://www.w3.org/2000/svg">
<path d="M16.8 75.6V95.2H36.4V105H7V75.6H16.8ZM105 75.6V105H75.6V95.2H95.2V75.6H105ZM33.95 31.5C33.9501 36.4972 35.6469 41.3464 38.7625 45.2534C41.8782 49.1605 46.2281 51.8939 51.1 53.0061V80.5H60.9L60.9049 53.0012C65.7751 51.8882 70.1232 49.1551 73.2378 45.2491C76.3525 41.3432 78.0491 36.4957 78.05 31.5H87.85C87.8511 37.328 86.2531 43.0446 83.23 48.0273C80.2069 53.0099 75.8746 57.0676 70.7049 59.7583L70.7 90.3H41.3V59.7632C36.1287 57.0727 31.7949 53.0146 28.7708 48.031C25.7468 43.0473 24.1485 37.3294 24.15 31.5H33.95ZM56 21.7C59.2489 21.7 62.3647 22.9906 64.6621 25.2879C66.9594 27.5853 68.25 30.7011 68.25 33.95C68.25 37.1989 66.9594 40.3147 64.6621 42.6121C62.3647 44.9094 59.2489 46.2 56 46.2C52.7511 46.2 49.6353 44.9094 47.3379 42.6121C45.0406 40.3147 43.75 37.1989 43.75 33.95C43.75 30.7011 45.0406 27.5853 47.3379 25.2879C49.6353 22.9906 52.7511 21.7 56 21.7ZM36.4 7V16.8L16.8 16.7951V36.4H7V7H36.4ZM105 7V36.4H95.2V16.8H75.6V7H105Z" fill="white"/>
</svg>
